<svg xmlns="http://www.w3.org/2000/svg" version="1.1" xmlns:xlink="http://www.w3.org/1999/xlink" xmlns:svgjs="http://svgjs.dev/svgjs" width="2000" height="1247" viewBox="0 0 2000 1247"><g transform="matrix(1,0,0,1,-1.2121212121212466,249.12977184803492)"><svg viewBox="0 0 396 247" data-background-color="#0b022d" preserveAspectRatio="xMidYMid meet" height="1247" width="2000" xmlns="http://www.w3.org/2000/svg" xmlns:xlink="http://www.w3.org/1999/xlink"><g id="tight-bounds" transform="matrix(1,0,0,1,0.2400000000000091,-0.09999999999999432)"><svg viewBox="0 0 395.52 247.2" height="247.2" width="395.52"><g><svg></svg></g><g><svg viewBox="0 0 395.52 247.2" height="247.2" width="395.52"><g transform="matrix(1,0,0,1,75.54432,65.93840682255845)"><svg viewBox="0 0 244.43135999999998 115.32318635488309" height="115.32318635488309" width="244.43135999999998"><g><svg viewBox="0 0 244.43135999999998 115.32318635488309" height="115.32318635488309" width="244.43135999999998"><g><svg viewBox="0 0 244.43135999999998 115.32318635488309" height="115.32318635488309" width="244.43135999999998"><g><svg viewBox="0 0 244.43135999999998 115.32318635488309" height="115.32318635488309" width="244.43135999999998"><g id="textblocktransform"><svg viewBox="0 0 244.43135999999998 115.32318635488309" height="115.32318635488309" width="244.43135999999998" id="textblock"><g><svg viewBox="0 0 244.43135999999998 115.32318635488309" height="115.32318635488309" width="244.43135999999998"><g transform="matrix(1,0,0,1,0,0)"><svg width="244.43135999999998" viewBox="1.8 -34.3 72.7 34.3" height="115.32318635488309" data-palette-color="#f7fff7"><path d="M35.7-23.3L31.1-23.3 31.1-30.15 13.3-30.15 13.3-19.2 21.2-19.2 21.2-23.85 25.2-23.85 25.2-10.75 21.2-10.75 21.2-15.4 13.3-15.4 13.3-4.15 31.1-4.15 31.1-11 35.7-11 35.7 0 1.8 0 1.8-4.15 8.2-4.15 8.2-30.15 1.8-30.15 1.8-34.3 35.7-34.3 35.7-23.3ZM41.25-34.3L74.5-34.3 74.5-23.05 69.9-23.05 69.9-30.15 52.8-30.15 52.8-18.6 60.8-18.6 60.8-23.25 64.75-23.25 64.75-10.1 60.8-10.1 60.8-14.8 52.8-14.8 52.8-4.15 59.55-4.15 59.55 0 41.25 0 41.25-4.15 47.7-4.15 47.7-30.15 41.25-30.15 41.25-34.3Z" opacity="1" transform="matrix(1,0,0,1,0,0)" fill="#000000" class="wordmark-text-0" data-fill-palette-color="primary" id="text-0"></path></svg></g></svg></g></svg></g></svg></g><g></g></svg></g></svg></g></svg></g><g><path d="M109.834 38.713A122.216 122.216 0 0 1 285.686 38.713L275.286 38.713A111.816 111.816 0 0 0 120.234 38.713L109.834 38.713M109.834 208.487A122.216 122.216 0 0 0 285.686 208.487L275.286 208.487A111.816 111.816 0 0 1 120.234 208.487L109.834 208.487" fill="#000000" stroke="transparent" data-fill-palette-color="tertiary"></path></g></svg></g><defs></defs></svg><rect width="395.52" height="247.2" fill="none" stroke="none" visibility="hidden"></rect></g></svg></g></svg>